<?xml version="1.0" encoding="UTF-8"?>
<!DOCTYPE svg PUBLIC "-//W3C//DTD SVG 1.1//EN" "http://www.w3.org/Graphics/SVG/1.1/DTD/svg11.dtd">
<!-- Creator: CorelDRAW 2020 (64-Bit) -->
<svg xmlns="http://www.w3.org/2000/svg" xml:space="preserve" width="6.151mm" height="5.331mm" version="1.1" style="shape-rendering:geometricPrecision; text-rendering:geometricPrecision; image-rendering:optimizeQuality; fill-rule:evenodd; clip-rule:evenodd"
viewBox="0 0 53.96 46.77"
 xmlns:xlink="http://www.w3.org/1999/xlink"
 xmlns:xodm="http://www.corel.com/coreldraw/odm/2003">
 <defs>
  <style type="text/css">
   <![CDATA[
    .fil0 {fill:white;fill-rule:nonzero}
   ]]>
  </style>
 </defs>
 <g id="Слой_x0020_1">
  <metadata id="CorelCorpID_0Corel-Layer"/>
  <path class="fil0" d="M41.37 44.97l-1.17 1.36c0.34,0.3 0.78,0.45 1.23,0.44l-0.06 -1.8zm-3.84 -6.16c-0.62,-0.78 -1.75,-0.91 -2.53,-0.3 -0.78,0.62 -0.91,1.75 -0.3,2.53l2.82 -2.23zm1.43 -1.47l-0.63 -1.69c-0.02,0.01 -0.05,0.02 -0.07,0.03l0.7 1.66zm-6.25 1.85l-0.3 -1.77 -0.03 0.01 0.33 1.77zm-11.17 -0.04l-0.34 1.77 0.01 0 0.33 -1.77zm-6.34 -1.85l-0.66 1.68 0 0 0.65 -1.68zm-3.15 -1.47l-1 1.49c0.04,0.03 0.08,0.05 0.12,0.07l0.88 -1.57zm-0.39 -0.22l1 -1.5c-0.06,-0.04 -0.13,-0.08 -0.19,-0.11l-0.8 1.61zm-0.17 -0.13l1.27 -1.27c-0.12,-0.12 -0.25,-0.22 -0.4,-0.3l-0.87 1.57zm7.75 5.47c0.62,-0.78 0.48,-1.91 -0.3,-2.53 -0.78,-0.61 -1.91,-0.48 -2.53,0.3l2.82 2.23zm-6.66 4.02l-0.06 1.8c0.46,0.01 0.9,-0.14 1.25,-0.45l-1.19 -1.35zm-10.79 -8.11l-1.8 0c0,0.1 0.01,0.19 0.02,0.29l1.78 -0.29zm6.21 -30.54l-1.08 -1.44c-0.27,0.21 -0.49,0.49 -0.61,0.81l1.69 0.63zm12.12 -4.53l1.79 -0.17c-0.09,-0.91 -0.84,-1.61 -1.75,-1.63l-0.04 1.8zm-1.36 4.7c0.09,0.99 0.97,1.71 1.96,1.62 0.99,-0.09 1.71,-0.97 1.62,-1.96l-3.58 0.34zm12.68 -0.23c-0.13,0.99 0.57,1.89 1.56,2.01 0.99,0.13 1.89,-0.57 2.01,-1.56l-3.57 -0.46zm2.39 -4.47l-0.04 -1.8c-0.89,0.02 -1.63,0.69 -1.74,1.57l1.78 0.23zm12.12 4.53l1.69 -0.63c-0.12,-0.32 -0.33,-0.6 -0.61,-0.81l-1.08 1.44zm6.21 30.54l1.78 0.29c0.01,-0.09 0.02,-0.19 0.02,-0.29l-1.8 0zm-28.85 -8.8l-1.8 -0.03 0 0.03 1.8 0zm18.05 16.9c1.17,-1.36 1.17,-1.36 1.17,-1.36 0,0 0,0 0,0 0,-0 0,-0 -0,-0 0,0 0,0 -0,-0 -0,-0 -0,-0 -0.01,-0.01 -0.01,-0.01 -0.02,-0.01 -0.03,-0.03 -0.03,-0.02 -0.07,-0.06 -0.12,-0.11 -0.11,-0.09 -0.26,-0.23 -0.46,-0.4 -0.38,-0.34 -0.91,-0.81 -1.47,-1.33 -1.17,-1.07 -2.37,-2.24 -2.91,-2.93l-2.82 2.23c0.75,0.95 2.17,2.31 3.3,3.35 0.59,0.54 1.13,1.02 1.53,1.37 0.2,0.17 0.36,0.32 0.47,0.42 0.06,0.05 0.1,0.09 0.13,0.11 0.01,0.01 0.03,0.02 0.03,0.03 0,0 0.01,0.01 0.01,0.01 0,0 0,0 0,0 0,0 0,0 0,0 0,0 0,0 0,0 0,0 0,0 1.17,-1.36zm1.57 -11.68c-1.65,1.09 -3.21,1.85 -4.6,2.36l1.25 3.37c1.64,-0.61 3.44,-1.49 5.32,-2.73l-1.98 -3.01zm-4.67 2.39c-2.04,0.86 -3.98,1.42 -5.86,1.74l0.6 3.55c2.17,-0.37 4.37,-1.01 6.65,-1.97l-1.39 -3.32zm-5.89 1.74c-3.88,0.73 -7.45,0.53 -10.51,-0.04l-0.66 3.54c3.41,0.64 7.43,0.87 11.83,0.04l-0.66 -3.54zm-10.49 -0.04c-2.33,-0.45 -4.33,-1.1 -6.03,-1.76l-1.31 3.35c1.84,0.72 4.06,1.44 6.65,1.94l0.68 -3.53zm-6.02 -1.76c-0.94,-0.37 -1.94,-0.81 -2.92,-1.36l-1.76 3.14c1.17,0.66 2.33,1.16 3.37,1.57l1.31 -3.35zm-2.8 -1.29c-0.17,-0.12 -0.34,-0.19 -0.39,-0.22 -0.08,-0.04 -0.04,-0.02 0,0.01l-2 2.99c0.17,0.11 0.33,0.19 0.39,0.22 0.08,0.04 0.04,0.02 -0,-0.01l2 -2.99zm-0.58 -0.33c0.07,0.03 0.14,0.08 0.21,0.14 0.06,0.05 0.1,0.09 0.08,0.07l-2.54 2.54c0.08,0.08 0.29,0.29 0.64,0.46l1.61 -3.22zm-0.1 -0.09c-0.36,-0.2 -0.63,-0.36 -0.81,-0.48 -0.09,-0.06 -0.15,-0.1 -0.2,-0.13 -0.02,-0.01 -0.03,-0.02 -0.04,-0.03 -0,-0 -0.01,-0 -0.01,-0 0,-0 0,-0 0,0 0,0 0,0 0,0 0,0 0,0 0,0 0,0 0,0 0,0 0,0 0,0 0,0 0,0 0,0 -1.03,1.47 -1.03,1.47 -1.03,1.47 -1.03,1.47 0,0 0,0 0,0 0,0 0,0 0,0 0,0 0,0 0,0 0,0 0,0 0,0 0,0 0.01,0 0.01,0.01 0.01,0 0.01,0.01 0.02,0.02 0.02,0.01 0.04,0.03 0.08,0.05 0.07,0.04 0.16,0.1 0.27,0.18 0.23,0.15 0.56,0.35 0.98,0.58l1.75 -3.15zm4.05 4.81c-0.55,0.69 -1.76,1.89 -2.93,2.98 -0.56,0.53 -1.09,1.01 -1.48,1.36 -0.19,0.17 -0.35,0.31 -0.46,0.41 -0.05,0.05 -0.1,0.09 -0.12,0.11 -0.01,0.01 -0.03,0.02 -0.03,0.03 -0,0 -0.01,0.01 -0.01,0.01 -0,0 -0,0 -0,0 0,0 0,0 0,0 0,0 0,0 0,0 0,0 0,0 1.19,1.35 1.19,1.35 1.19,1.35 1.19,1.35 0,-0 0,-0 0,-0 0,0 0,0 0,0 0,0 0,-0 0,-0 0,-0 0.01,-0 0.01,-0.01 0.01,-0.01 0.02,-0.02 0.04,-0.03 0.03,-0.03 0.07,-0.06 0.13,-0.11 0.11,-0.1 0.28,-0.25 0.47,-0.43 0.4,-0.36 0.94,-0.85 1.52,-1.4 1.13,-1.06 2.55,-2.44 3.29,-3.38l-2.82 -2.23zm-3.78 4.45c-4.19,-0.13 -6.4,-1.88 -7.59,-3.46 -0.62,-0.82 -1,-1.64 -1.22,-2.24 -0.11,-0.3 -0.18,-0.55 -0.22,-0.71 -0.02,-0.08 -0.03,-0.14 -0.04,-0.17 -0,-0.02 -0.01,-0.03 -0.01,-0.03 0,-0 0,-0 0,0 0,0 0,0 0,0 0,0 0,0 0,0 0,0 0,0 0,0 0,0 0,0 -1.78,0.29 -1.78,0.29 -1.78,0.29 -1.78,0.29 0,0 0,0 0,0 0,0 0,0 0,0.01 0,0 0,0.01 0,0.01 0,0.01 0,0.02 0.01,0.03 0.01,0.03 0.01,0.06 0.02,0.1 0.02,0.08 0.04,0.19 0.07,0.32 0.07,0.27 0.17,0.64 0.33,1.07 0.31,0.86 0.85,2.02 1.73,3.19 1.82,2.4 5.01,4.71 10.35,4.88l0.11 -3.59zm-9.05 -6.31c0,-6.71 1.51,-14.17 3.05,-20.02 0.76,-2.91 1.53,-5.39 2.1,-7.14 0.29,-0.88 0.52,-1.57 0.69,-2.04 0.08,-0.24 0.15,-0.42 0.19,-0.54 0.02,-0.06 0.04,-0.11 0.05,-0.14 0.01,-0.01 0.01,-0.03 0.01,-0.03 0,-0 0,-0.01 0,-0.01 0,0 0,-0 0,-0 0,0 0,0 0,0 0,0 -0,0 -1.69,-0.63 -1.69,-0.63 -1.69,-0.63 -1.69,-0.63 0,0 0,0 0,0 0,0 -0,0 -0,0 -0,0 -0,0.01 -0,0.01 -0,0.01 -0.01,0.02 -0.01,0.04 -0.01,0.04 -0.03,0.09 -0.05,0.15 -0.05,0.13 -0.12,0.32 -0.2,0.57 -0.17,0.49 -0.42,1.21 -0.72,2.11 -0.59,1.8 -1.38,4.35 -2.17,7.35 -1.57,5.95 -3.16,13.76 -3.16,20.93l3.6 0zm5.49 -29.1c2.88,-2.16 5.67,-3.2 7.73,-3.7 1.03,-0.25 1.88,-0.37 2.45,-0.42 0.29,-0.03 0.51,-0.04 0.64,-0.04 0.07,-0 0.12,-0 0.15,-0 0.01,0 0.02,0 0.03,0 0,0 0,0 0,0 -0,0 -0,0 -0,0 -0,0 -0,0 -0,0 0,0 0,0 -0,0 0,0 -0,0 0.04,-1.8 0.04,-1.8 0.04,-1.8 0.04,-1.8 0,0 -0,0 -0,0 -0,0 -0,0 -0,0 -0,0 -0.01,0 -0.01,0 -0.01,0 -0.01,0 -0.02,0 -0.02,0 -0.04,0 -0.07,0 -0.06,0 -0.14,0 -0.25,0 -0.21,0.01 -0.5,0.02 -0.86,0.06 -0.73,0.07 -1.75,0.21 -2.97,0.51 -2.44,0.6 -5.71,1.82 -9.04,4.32l2.16 2.88zm9.25 -5.8l0.43 4.53 3.58 -0.34 -0.43 -4.53 -3.58 0.34zm16.68 4.76l0.6 -4.7 -3.57 -0.46 -0.6 4.7 3.57 0.46zm-1.18 -4.93c0.04,1.8 0.04,1.8 0.04,1.8 0,0 0,0 0,0 -0,0 -0,0 -0,0 -0,0 -0,0 -0,0 -0,0 0,0 0,0 0,0 0.01,0 0.03,0 0.03,0 0.08,0 0.15,0 0.14,0 0.36,0.01 0.64,0.04 0.57,0.05 1.42,0.17 2.45,0.42 2.06,0.5 4.86,1.54 7.73,3.7l2.16 -2.88c-3.33,-2.5 -6.6,-3.72 -9.04,-4.32 -1.22,-0.3 -2.24,-0.44 -2.97,-0.51 -0.36,-0.03 -0.66,-0.05 -0.86,-0.06 -0.1,-0 -0.19,-0 -0.25,-0 -0.03,0 -0.06,0 -0.07,0 -0.01,0 -0.02,0 -0.02,0 -0,0 -0.01,0 -0.01,0 -0,0 -0,0 -0,0 -0,0 -0,0 -0,0 0,0 -0,0 0.04,1.8zm12.12 4.53c-1.69,0.63 -1.69,0.63 -1.69,0.63 0,0 0,0 0,0 0,0 0,0 0,0 0,0 0,0 0,0.01 0,0.01 0.01,0.02 0.01,0.03 0.01,0.03 0.03,0.07 0.05,0.14 0.04,0.12 0.11,0.3 0.19,0.54 0.17,0.47 0.41,1.16 0.69,2.04 0.57,1.75 1.34,4.23 2.1,7.14 1.54,5.84 3.05,13.3 3.05,20.02l3.6 0c0,-7.17 -1.6,-14.98 -3.16,-20.93 -0.79,-2.99 -1.57,-5.54 -2.17,-7.35 -0.3,-0.9 -0.54,-1.62 -0.72,-2.11 -0.09,-0.25 -0.15,-0.44 -0.2,-0.57 -0.02,-0.07 -0.04,-0.12 -0.05,-0.15 -0.01,-0.02 -0.01,-0.03 -0.01,-0.04 -0,-0 -0,-0.01 -0,-0.01 -0,-0 -0,-0 -0,-0 0,0 0,-0 0,-0 -0,0 -0,0 -1.69,0.63zm6.21 30.54c-1.78,-0.29 -1.78,-0.29 -1.78,-0.29 0,0 0,-0 0,-0 0,-0 0,-0 0,-0 0,-0 0,-0 0,-0 0,-0 0,-0 0,-0 0,0 -0,0.01 -0.01,0.03 -0.01,0.03 -0.02,0.09 -0.04,0.17 -0.04,0.16 -0.11,0.41 -0.22,0.71 -0.22,0.61 -0.6,1.42 -1.22,2.24 -1.2,1.58 -3.4,3.32 -7.59,3.46l0.11 3.59c5.34,-0.17 8.53,-2.48 10.35,-4.88 0.89,-1.17 1.42,-2.32 1.73,-3.19 0.16,-0.43 0.26,-0.8 0.33,-1.07 0.03,-0.13 0.06,-0.24 0.07,-0.32 0.01,-0.04 0.01,-0.07 0.02,-0.1 0,-0.01 0,-0.02 0.01,-0.03 0,-0.01 0,-0.01 0,-0.01 0,-0 0,-0 0,-0.01 0,0 0,-0 0,-0 0,-0 0,-0 -1.78,-0.29zm-33.25 -15.38c-3.6,0 -6.2,3.12 -6.2,6.58l3.6 0c0,-1.79 1.29,-2.99 2.6,-2.99l0 -3.6zm-6.2 6.58c0,3.48 2.65,6.58 6.2,6.58l0 -3.6c-1.28,0 -2.6,-1.21 -2.6,-2.99l-3.6 0zm6.2 6.58c3.6,0 6.2,-3.12 6.2,-6.58l-3.6 0c0,1.79 -1.28,2.99 -2.6,2.99l0 3.6zm6.2 -6.56c0.06,-3.52 -2.62,-6.61 -6.2,-6.61l0 3.6c1.34,0 2.63,1.22 2.6,2.96l3.6 0.06zm9.54 -6.61c-3.6,0 -6.2,3.12 -6.2,6.58l3.6 0c0,-1.79 1.28,-2.99 2.6,-2.99l0 -3.6zm-6.2 6.58c0,3.48 2.65,6.58 6.2,6.58l0 -3.6c-1.28,0 -2.6,-1.21 -2.6,-2.99l-3.6 0zm6.2 6.58c3.6,0 6.2,-3.12 6.2,-6.58l-3.6 0c0,1.79 -1.29,2.99 -2.6,2.99l0 3.6zm6.2 -6.58c0,-3.47 -2.6,-6.58 -6.2,-6.58l0 3.6c1.31,0 2.6,1.19 2.6,2.99l3.6 0zm-27.4 -15.69c5.19,-2.83 9.42,-4.15 13.54,-4.15 4.12,-0 8.34,1.31 13.52,4.15l1.73 -3.16c-5.48,-3 -10.31,-4.6 -15.25,-4.59 -4.94,0 -9.77,1.6 -15.26,4.59l1.72 3.16z"/>
 </g>
</svg>
