<?xml version="1.0" encoding="UTF-8"?>
<!DOCTYPE svg PUBLIC "-//W3C//DTD SVG 1.1//EN" "http://www.w3.org/Graphics/SVG/1.1/DTD/svg11.dtd">
<!-- Creator: CorelDRAW 2020 (64-Bit) -->
<svg xmlns="http://www.w3.org/2000/svg" xml:space="preserve" width="210mm" height="173.541mm" version="1.1" style="shape-rendering:geometricPrecision; text-rendering:geometricPrecision; image-rendering:optimizeQuality; fill-rule:evenodd; clip-rule:evenodd"
viewBox="0 0 16082.06 13289.97"
 xmlns:xlink="http://www.w3.org/1999/xlink"
 xmlns:xodm="http://www.corel.com/coreldraw/odm/2003">
 <defs>
  <style type="text/css">
   <![CDATA[
    .fil0 {fill:white;fill-rule:nonzero}
   ]]>
  </style>
 </defs>
 <g id="Слой_x0020_1">
  <metadata id="CorelCorpID_0Corel-Layer"/>
  <g id="_1726223339072">
   <g>
    <g>
     <path class="fil0" d="M15619.73 7088.57c-718.07,-867.96 -1803.01,-1421.91 -3014.85,-1421.91 -1858.3,0 -3418,1302.55 -3814.37,3042.56l-1498.93 0c-396.37,-1740 -1956.05,-3042.56 -3814.37,-3042.56 -1211.84,0 -2296.78,553.95 -3014.85,1421.91 -300.73,828.42 -462.37,1663.83 -462.37,2453.77l0 436.64 8041.03 3310.99 8041.03 -3310.99 0 -436.64c0,-789.9 -161.64,-1625.35 -462.33,-2453.77zm-10838.59 1620.64c-360.05,0 -651.98,-291.87 -651.98,-651.98 0,-360.12 291.9,-651.98 651.98,-651.98 360.05,0 651.98,291.87 651.98,651.98 0,360.12 -291.89,651.98 -651.98,651.98zm3259.89 2173.25c0,0 -869.31,-434.65 -869.31,-869.31 0,-240.07 194.59,-434.65 434.65,-434.65l434.66 0 434.65 0c240.07,0 434.65,194.59 434.65,434.65 0.01,434.66 -869.3,869.31 -869.3,869.31zm3259.89 -2173.25c-360.05,0 -651.98,-291.87 -651.98,-651.98 0,-360.12 291.93,-651.98 651.98,-651.98 360.05,0 651.98,291.87 651.98,651.98 0,360.12 -291.93,651.98 -651.98,651.98z"/>
    </g>
   </g>
   <g>
    <g>
     <path class="fil0" d="M14810.13 2069.59c-148.85,-883.04 -410.75,-1579.43 -421.84,-1608.64l-174.77 -460.94 -491.19 42.59c-31.03,2.7 -769.65,68.85 -1627.62,322.3 -865.57,255.71 -1543.56,607.01 -2027.56,1047.56 -670.01,-226.84 -1352.18,-345.76 -2026.09,-345.76 -673.88,0 -1356.08,118.92 -2026.09,345.76 -484.03,-440.56 -1161.99,-791.85 -2027.56,-1047.56 -858,-253.45 -1596.62,-319.63 -1627.65,-322.3l-491.16 -42.6 -174.77 460.94c-11.09,29.21 -272.96,725.55 -421.84,1608.64 -185.6,1101.5 -117.7,2005.04 198.86,2694.69 618,-258.54 1295.83,-401.58 2006.43,-401.58 1961.44,0 3673.3,1088.62 4563.72,2693.21 890.42,-1604.59 2602.31,-2693.21 4563.82,-2693.21 710.66,0 1388.46,143.05 2006.43,401.58 316.61,-689.64 384.55,-1593.19 198.88,-2694.68z"/>
    </g>
   </g>
   <g>
   </g>
   <g>
   </g>
   <g>
   </g>
   <g>
   </g>
   <g>
   </g>
   <g>
   </g>
   <g>
   </g>
   <g>
   </g>
   <g>
   </g>
   <g>
   </g>
   <g>
   </g>
   <g>
   </g>
   <g>
   </g>
   <g>
   </g>
   <g>
   </g>
  </g>
 </g>
</svg>
