<?xml version="1.0" encoding="UTF-8"?>
<!DOCTYPE svg PUBLIC "-//W3C//DTD SVG 1.1//EN" "http://www.w3.org/Graphics/SVG/1.1/DTD/svg11.dtd">
<!-- Creator: CorelDRAW 2020 (64-Bit) -->
<svg xmlns="http://www.w3.org/2000/svg" xml:space="preserve" width="6.151mm" height="5.331mm" version="1.1" style="shape-rendering:geometricPrecision; text-rendering:geometricPrecision; image-rendering:optimizeQuality; fill-rule:evenodd; clip-rule:evenodd"
viewBox="0 0 25.67 22.25"
 xmlns:xlink="http://www.w3.org/1999/xlink"
 xmlns:xodm="http://www.corel.com/coreldraw/odm/2003">
 <defs>
  <style type="text/css">
   <![CDATA[
    .fil0 {fill:white;fill-rule:nonzero}
   ]]>
  </style>
 </defs>
 <g id="Слой_x0020_1">
  <metadata id="CorelCorpID_0Corel-Layer"/>
  <path class="fil0" d="M9.59 18.13c0.58,-0.14 0.9,-0.59 0.71,-1.02 -0.18,-0.43 -0.8,-0.67 -1.37,-0.53l0.66 1.56zm-7.98 -4.83l-1.06 -0.21 -0.56 1.58 1.06 0.21 0.56 -1.58zm15.31 8.14l0 0.82 2.19 0 0 -0.82 -2.19 0zm0.14 -7.86l-0.12 -0.81c-0.42,0.03 -0.78,0.24 -0.92,0.54 -0.14,0.3 -0.04,0.63 0.26,0.85l0.77 -0.58zm7.52 -6.16l1.09 0 0 -0 -1.09 0zm-1.82 -3.28l-1.02 -0.3c-0.16,0.3 -0.06,0.64 0.24,0.87l0.77 -0.58zm-0.11 -3.29l1 -0.33c-0.13,-0.22 -0.39,-0.39 -0.7,-0.45l-0.3 0.79zm-4.75 1.29l-0.28 0.79c0.3,0.06 0.61,0.02 0.87,-0.1l-0.59 -0.69zm-8.51 0l-0.59 0.69c0.26,0.12 0.57,0.16 0.87,0.1l-0.28 -0.79zm-4.75 -1.29l-0.3 -0.79c-0.31,0.07 -0.57,0.23 -0.7,0.45l1 0.33zm-0.11 3.29l0.77 0.58c0.31,-0.23 0.4,-0.57 0.24,-0.87l-1.02 0.3zm-1.82 3.3l1.09 0 0 -0 -1.09 0zm7.52 6.14l0.77 0.58c0.3,-0.22 0.4,-0.55 0.26,-0.85 -0.14,-0.3 -0.49,-0.51 -0.9,-0.54l-0.13 0.81zm-0.96 2.14l1.09 0c0,-0.02 -0,-0.04 -0,-0.06l-1.09 0.06zm-1.09 5.72l0 0.82 2.19 0 0 -0.82 -2.19 0zm0.77 -4.86c-1.32,0.31 -2.16,0.28 -2.71,0.14 -0.55,-0.14 -0.97,-0.41 -1.38,-0.8 -0.2,-0.2 -0.39,-0.42 -0.59,-0.66 -0.19,-0.23 -0.4,-0.49 -0.62,-0.73 -0.42,-0.46 -1.03,-1.03 -2.03,-1.23l-0.56 1.58c0.17,0.03 0.4,0.15 0.78,0.57 0.18,0.2 0.35,0.41 0.56,0.67 0.21,0.25 0.44,0.52 0.71,0.79 0.55,0.54 1.31,1.08 2.43,1.36 1.12,0.27 2.44,0.25 4.05,-0.13l-0.66 -1.56zm10.17 -0.96c0,-0.52 -0.03,-0.99 -0.23,-1.43 -0.21,-0.47 -0.57,-0.83 -1.05,-1.19l-1.54 1.16c0.34,0.25 0.45,0.4 0.52,0.54 0.08,0.17 0.12,0.42 0.12,0.92l2.19 0zm-1.93 -1.23c1.98,-0.16 4.13,-0.53 5.79,-1.6 1.71,-1.1 2.71,-2.82 2.71,-5.37l-2.19 0c0,2.22 -0.85,3.43 -1.95,4.14 -1.15,0.74 -2.75,1.07 -4.59,1.21l0.23 1.62zm8.5 -6.98c-0.01,-1.44 -0.78,-2.83 -2.14,-3.85l-1.55 1.15c0.96,0.72 1.5,1.69 1.5,2.7l2.19 -0.01zm-1.9 -2.98c0.33,-0.63 0.48,-1.3 0.46,-1.97l-2.19 0.04c0.02,0.46 -0.09,0.91 -0.31,1.34l2.04 0.59zm0.46 -1.97c-0.02,-0.67 -0.22,-1.34 -0.59,-1.95l-2 0.67c0.25,0.42 0.39,0.87 0.4,1.33l2.19 -0.04zm-1.59 -1.62c0.3,-0.79 0.3,-0.79 0.3,-0.79 -0,0 -0,0 -0,0 -0,-0 -0,-0 -0,-0 -0,-0 -0.01,-0 -0.01,-0 -0.01,-0 -0.01,-0 -0.02,-0 -0.01,-0 -0.03,-0.01 -0.05,-0.01 -0.03,-0.01 -0.07,-0.01 -0.12,-0.02 -0.09,-0.01 -0.21,-0.02 -0.34,-0.02 -0.28,-0.01 -0.65,0.01 -1.11,0.09 -0.93,0.15 -2.24,0.52 -3.98,1.36l1.19 1.37c1.57,-0.76 2.64,-1.04 3.25,-1.13 0.31,-0.05 0.5,-0.05 0.6,-0.05 0.05,0 0.07,0 0.07,0 0,0 -0.01,-0 -0.02,-0 -0.01,-0 -0.01,-0 -0.02,-0 -0,-0 -0.01,-0 -0.01,-0 -0,0 -0.01,-0 -0.01,-0 -0,-0 -0,-0 -0,-0 -0,-0 -0,-0 -0,-0 -0,0 -0,-0 0.3,-0.79zm-4.48 0.5c-2.97,-0.58 -6.09,-0.58 -9.06,0l0.55 1.58c2.61,-0.51 5.35,-0.51 7.95,0l0.55 -1.58zm-8.19 0.1c-1.74,-0.84 -3.05,-1.21 -3.99,-1.36 -0.47,-0.07 -0.84,-0.09 -1.11,-0.09 -0.14,0 -0.25,0.01 -0.34,0.02 -0.05,0.01 -0.09,0.01 -0.12,0.02 -0.02,0 -0.03,0.01 -0.05,0.01 -0.01,0 -0.01,0 -0.02,0 -0,0 -0.01,0 -0.01,0 -0,0 -0,0 -0,0 -0,0 -0,0 -0,0 -0,0 -0,0 0.3,0.79 0.3,0.79 0.3,0.79 0.3,0.79 -0,0 -0,0 -0,0 -0,0 -0,0 -0,0 -0,0 -0.01,0 -0.01,0 -0.01,0 -0.01,0 -0.01,0 -0.01,0 -0.01,0 -0.02,0 -0.01,0 -0.02,0 -0.02,0 0,-0 0.01,-0 0.02,-0 0.01,-0 0.03,-0 0.05,-0 0.09,-0 0.29,0 0.6,0.05 0.62,0.1 1.68,0.37 3.26,1.13l1.19 -1.37zm-6.34 -0.94c-0.37,0.61 -0.57,1.28 -0.59,1.95l2.19 0.04c0.01,-0.46 0.15,-0.91 0.4,-1.33l-2 -0.67zm-0.59 1.95c-0.02,0.67 0.13,1.34 0.46,1.97l2.04 -0.59c-0.22,-0.43 -0.33,-0.88 -0.31,-1.34l-2.19 -0.04zm0.71 1.1c-0.68,0.51 -1.22,1.12 -1.59,1.78l2.02 0.62c0.26,-0.47 0.64,-0.89 1.12,-1.25l-1.55 -1.15zm-1.59 1.78c-0.37,0.67 -0.56,1.38 -0.55,2.1l2.19 -0c-0,-0.51 0.13,-1.01 0.39,-1.47l-2.02 -0.62zm-0.55 2.1c0,2.54 1,4.24 2.71,5.34 1.66,1.06 3.81,1.44 5.77,1.61l0.26 -1.62c-1.85,-0.17 -3.46,-0.49 -4.61,-1.23 -1.1,-0.7 -1.95,-1.9 -1.95,-4.1l-2.19 0zm7.84 5.56c-1.09,0.81 -1.37,1.78 -1.28,2.78l2.18 -0.12c-0.07,-0.67 0.11,-1.12 0.64,-1.51l-1.54 -1.16zm-1.28 2.72l0 5.72 2.19 0 0 -5.72 -2.19 0zm10.94 5.72l0 -2.45 -2.19 0 0 2.45 2.19 0zm0 -2.45l0 -3.37 -2.19 0 0 3.37 2.19 0z"/>
 </g>
</svg>
