<?xml version="1.0" encoding="UTF-8"?>
<!DOCTYPE svg PUBLIC "-//W3C//DTD SVG 1.1//EN" "http://www.w3.org/Graphics/SVG/1.1/DTD/svg11.dtd">
<!-- Creator: CorelDRAW 2020 (64-Bit) -->
<svg xmlns="http://www.w3.org/2000/svg" xml:space="preserve" width="16.9334mm" height="16.4042mm" version="1.1" style="shape-rendering:geometricPrecision; text-rendering:geometricPrecision; image-rendering:optimizeQuality; fill-rule:evenodd; clip-rule:evenodd"
viewBox="0 0 310.41 300.71"
 xmlns:xlink="http://www.w3.org/1999/xlink"
 xmlns:xodm="http://www.corel.com/coreldraw/odm/2003">
 <defs>
  <style type="text/css">
   <![CDATA[
    .fil0 {fill:white;fill-rule:nonzero}
   ]]>
  </style>
 </defs>
 <g id="Слой_x0020_1">
  <metadata id="CorelCorpID_0Corel-Layer"/>
  <path class="fil0" d="M155.21 0c-87.3,0 -155.21,67.9 -155.21,155.21 0,101.85 92.15,145.51 106.71,145.51 9.7,0 9.7,-4.85 9.7,-9.7l0 -24.25c-33.95,9.7 -48.5,-9.7 -53.35,-24.25 0,0 0,-4.85 -9.7,-14.55 -4.85,-4.85 -24.25,-14.55 -4.85,-14.55 14.55,0 24.25,19.4 24.25,19.4 14.55,19.4 33.95,14.55 43.65,9.7 0,-9.7 9.7,-19.4 9.7,-19.4 -38.8,-4.85 -67.9,-19.4 -67.9,-72.75 0,-19.4 4.85,-33.95 14.55,-43.65 0,0 -9.7,-19.4 0,-43.65 0,0 24.25,0 43.65,19.4 14.55,-9.7 63.05,-9.7 77.6,0 19.4,-19.4 43.65,-19.4 43.65,-19.4 9.7,33.95 0,43.65 0,43.65 9.7,9.7 14.55,24.25 14.55,43.65 0,53.35 -33.95,67.9 -67.9,72.75 4.85,4.85 9.7,14.55 9.7,29.1l0 38.8c0,4.85 0,9.7 9.7,9.7 14.55,0 106.71,-43.65 106.71,-145.51 0,-87.3 -67.9,-155.21 -155.21,-155.21z"/>
 </g>
</svg>
