<?xml version="1.0" encoding="UTF-8"?>
<!DOCTYPE svg PUBLIC "-//W3C//DTD SVG 1.1//EN" "http://www.w3.org/Graphics/SVG/1.1/DTD/svg11.dtd">
<!-- Creator: CorelDRAW 2020 (64-Bit) -->
<svg xmlns="http://www.w3.org/2000/svg" xml:space="preserve" width="6.151mm" height="5.3309mm" version="1.1" style="shape-rendering:geometricPrecision; text-rendering:geometricPrecision; image-rendering:optimizeQuality; fill-rule:evenodd; clip-rule:evenodd"
viewBox="0 0 45.11 39.1"
 xmlns:xlink="http://www.w3.org/1999/xlink"
 xmlns:xodm="http://www.corel.com/coreldraw/odm/2003">
 <defs>
  <style type="text/css">
   <![CDATA[
    .fil0 {fill:white;fill-rule:nonzero}
   ]]>
  </style>
 </defs>
 <g id="Слой_x0020_1">
  <metadata id="CorelCorpID_0Corel-Layer"/>
  <path class="fil0" d="M41.77 0c-0.58,0.03 -1.13,0.19 -1.62,0.37l-0.01 0c-0.5,0.19 -2.85,1.14 -6.42,2.59 -3.57,1.45 -8.21,3.34 -12.81,5.21 -9.19,3.74 -18.23,7.41 -18.23,7.41l0.11 -0.04c0,0 -0.62,0.2 -1.27,0.63 -0.33,0.21 -0.7,0.5 -1.02,0.95 -0.32,0.45 -0.58,1.14 -0.48,1.86 0.16,1.21 0.97,1.94 1.55,2.34 0.59,0.41 1.15,0.6 1.15,0.6l0.01 0 8.47 2.75c0.38,1.18 2.58,8.16 3.11,9.77 0.31,0.96 0.62,1.56 1,2.02 0.18,0.24 0.4,0.43 0.66,0.59 0.1,0.06 0.21,0.1 0.32,0.14 0.03,0.02 0.07,0.03 0.11,0.03l-0.09 -0.02c0.03,0.01 0.05,0.03 0.07,0.03 0.07,0.02 0.12,0.03 0.2,0.04 1.34,0.39 2.42,-0.41 2.42,-0.41l0.06 -0.05 5 -4.4 8.39 6.21 0.19 0.08c1.75,0.74 3.52,0.33 4.45,-0.4 0.94,-0.73 1.31,-1.67 1.31,-1.67l0.06 -0.15 6.48 -32.03c0.18,-0.79 0.23,-1.53 0.03,-2.25 -0.2,-0.72 -0.73,-1.39 -1.36,-1.75 -0.64,-0.37 -1.27,-0.48 -1.85,-0.45zm-0.18 3.43c-0.01,0.1 0.01,0.09 -0.03,0.29l0 0.02 -6.42 31.7c-0.03,0.05 -0.07,0.14 -0.2,0.24 -0.13,0.1 -0.24,0.17 -0.81,-0.05l-10.26 -7.59 -6.19 5.45 1.3 -8.02c0,0 16.07,-14.45 16.76,-15.07 0.69,-0.62 0.46,-0.75 0.46,-0.75 0.05,-0.76 -1.04,-0.22 -1.04,-0.22l-21.13 12.63 -0.01 -0.03 -10.13 -3.29 0 -0.01c-0.01,0 -0.02,-0.01 -0.03,-0.01 0.01,0 0.06,-0.02 0.06,-0.02l0.05 -0.03 0.05 -0.02c0,0 9.04,-3.68 18.24,-7.41 4.6,-1.87 9.24,-3.75 12.81,-5.21 3.57,-1.45 6.2,-2.51 6.35,-2.56 0.14,-0.05 0.07,-0.05 0.18,-0.05z"/>
 </g>
</svg>
